<svg width="64" height="64" viewBox="0 0 64 64" fill="none" xmlns="http://www.w3.org/2000/svg">
<rect width="64" height="64" rx="8" fill="white"/>
<g clip-path="url(#clip0_322_1130)">
<mask id="path-2-outside-1_322_1130" maskUnits="userSpaceOnUse" x="16.7383" y="15.0049" width="30" height="34" fill="black">
<rect fill="white" x="16.7383" y="15.0049" width="30" height="34"/>
<path d="M42.4258 38.6002L38.657 37.5439C35.507 35.6002 36.507 36.2189 36.307 36.0939V34.0064C37.607 32.6314 38.782 30.5627 38.9133 26.3752C39.2758 26.0689 39.5133 25.6127 39.5133 25.0877C39.5133 24.5564 39.5133 24.0502 39.332 23.2502L40.1383 21.6627C40.6445 20.6627 40.207 19.4377 39.182 18.9814L32.7945 16.1689C32.2945 15.9502 31.7133 15.9502 31.2133 16.1689L24.8133 18.9877C23.7883 19.4377 23.3508 20.6627 23.857 21.6627L24.6633 23.2564C24.4945 24.0564 24.4945 24.5564 24.4945 25.1127C24.4945 25.5752 24.6695 26.0252 25.0883 26.3752C25.2133 30.5064 26.4133 32.6189 27.6945 33.9877V36.0877C27.4945 36.2127 28.4945 35.5939 25.3508 37.5439L21.582 38.6002C19.3195 39.2377 17.7383 41.3252 17.7383 43.6814V47.1502C17.7383 47.5189 18.0383 47.8189 18.407 47.8189C18.7758 47.8189 19.0633 47.5189 19.0633 47.1502V43.6814C19.0633 41.9252 20.2445 40.3627 21.9383 39.8877L25.3133 38.9377L27.0633 41.7564C27.5945 42.6127 28.7195 42.9377 29.6445 42.3939L30.0695 42.8189L29.582 47.2627C29.5445 47.6314 29.807 47.9564 30.1695 48.0002C30.532 48.0377 30.8633 47.7752 30.907 47.4127L31.3008 43.8252C31.5195 43.9127 31.7508 43.9564 31.9945 43.9564C32.2383 43.9564 32.4695 43.9064 32.6883 43.8252L33.082 47.4127C33.1258 47.8252 33.5445 48.0689 33.8195 48.0002C34.1883 47.9627 34.4508 47.6314 34.407 47.2627L33.9195 42.8189L34.3445 42.3939C35.2633 42.9314 36.3945 42.6189 36.9258 41.7564L38.6758 38.9377L42.057 39.8814C43.7508 40.3564 44.932 41.9189 44.932 43.6752V47.1439C44.932 47.5127 45.232 47.8127 45.6008 47.8127C45.9695 47.8127 46.2695 47.5127 46.2695 47.1439V43.6752C46.2695 41.3314 44.6883 39.2439 42.4258 38.6002ZM32.0008 39.0627L29.0258 36.1877V35.2189C29.0445 35.2377 29.4633 35.5877 29.4695 35.5939C30.0008 36.0439 30.6695 36.2877 31.3633 36.2877H32.6508C33.3445 36.2877 34.0195 36.0377 34.5508 35.5877C34.9383 35.2627 34.9508 35.2439 34.9883 35.2252V36.1877L32.0008 39.0627ZM38.182 25.1189C38.182 25.2939 38.0383 25.4439 37.857 25.4439C37.907 25.4439 37.282 25.4377 26.1445 25.4439C25.9695 25.4439 25.8195 25.3002 25.8195 25.1189C25.8195 24.6502 25.8195 24.3314 25.9008 23.8377H38.0945C38.182 24.3252 38.182 24.6814 38.182 25.1189ZM35.607 26.7752L35.0258 27.3377C34.5945 27.7564 34.0258 27.9814 33.432 27.9814H30.582C29.982 27.9814 29.4133 27.7502 28.982 27.3314L28.407 26.7752H35.607ZM26.4883 26.7752L28.0508 28.2877C28.732 28.9502 29.6258 29.3127 30.5758 29.3127H33.4258C34.3695 29.3127 35.2695 28.9502 35.9508 28.2939L37.5195 26.7752H37.5633C37.3133 31.6814 35.5258 33.0189 33.6758 34.5752C33.3883 34.8189 33.0195 34.9564 32.6445 34.9564H31.357C30.982 34.9564 30.6133 34.8189 30.3258 34.5752C28.807 33.2252 26.682 32.0252 26.4258 26.7752H26.4883ZM25.3508 20.2064L31.7508 17.3877C31.9133 17.3189 32.0945 17.3189 32.257 17.3877L38.6508 20.2064C38.982 20.3502 39.1195 20.7439 38.957 21.0627L38.2258 22.5002H25.7695L25.0445 21.0627C24.882 20.7439 25.0258 20.3502 25.3508 20.2064ZM28.2008 41.0502L26.5383 38.3752C28.9133 36.9127 28.0945 37.4127 28.2695 37.3064L30.9508 39.9002L29.0195 41.2252C28.7445 41.4127 28.3758 41.3314 28.2008 41.0502ZM31.5883 42.4502L30.7758 41.6377L32.0008 40.8002L33.2258 41.6377L32.4133 42.4502C32.1945 42.6689 31.807 42.6689 31.5883 42.4502ZM35.8008 41.0502C35.6258 41.3252 35.257 41.4127 34.982 41.2252L33.0508 39.9002L35.732 37.3064C35.907 37.4127 35.0945 36.9127 37.457 38.3752L35.8008 41.0502Z"/>
</mask>
<path d="M42.4258 38.6002L38.657 37.5439C35.507 35.6002 36.507 36.2189 36.307 36.0939V34.0064C37.607 32.6314 38.782 30.5627 38.9133 26.3752C39.2758 26.0689 39.5133 25.6127 39.5133 25.0877C39.5133 24.5564 39.5133 24.0502 39.332 23.2502L40.1383 21.6627C40.6445 20.6627 40.207 19.4377 39.182 18.9814L32.7945 16.1689C32.2945 15.9502 31.7133 15.9502 31.2133 16.1689L24.8133 18.9877C23.7883 19.4377 23.3508 20.6627 23.857 21.6627L24.6633 23.2564C24.4945 24.0564 24.4945 24.5564 24.4945 25.1127C24.4945 25.5752 24.6695 26.0252 25.0883 26.3752C25.2133 30.5064 26.4133 32.6189 27.6945 33.9877V36.0877C27.4945 36.2127 28.4945 35.5939 25.3508 37.5439L21.582 38.6002C19.3195 39.2377 17.7383 41.3252 17.7383 43.6814V47.1502C17.7383 47.5189 18.0383 47.8189 18.407 47.8189C18.7758 47.8189 19.0633 47.5189 19.0633 47.1502V43.6814C19.0633 41.9252 20.2445 40.3627 21.9383 39.8877L25.3133 38.9377L27.0633 41.7564C27.5945 42.6127 28.7195 42.9377 29.6445 42.3939L30.0695 42.8189L29.582 47.2627C29.5445 47.6314 29.807 47.9564 30.1695 48.0002C30.532 48.0377 30.8633 47.7752 30.907 47.4127L31.3008 43.8252C31.5195 43.9127 31.7508 43.9564 31.9945 43.9564C32.2383 43.9564 32.4695 43.9064 32.6883 43.8252L33.082 47.4127C33.1258 47.8252 33.5445 48.0689 33.8195 48.0002C34.1883 47.9627 34.4508 47.6314 34.407 47.2627L33.9195 42.8189L34.3445 42.3939C35.2633 42.9314 36.3945 42.6189 36.9258 41.7564L38.6758 38.9377L42.057 39.8814C43.7508 40.3564 44.932 41.9189 44.932 43.6752V47.1439C44.932 47.5127 45.232 47.8127 45.6008 47.8127C45.9695 47.8127 46.2695 47.5127 46.2695 47.1439V43.6752C46.2695 41.3314 44.6883 39.2439 42.4258 38.6002ZM32.0008 39.0627L29.0258 36.1877V35.2189C29.0445 35.2377 29.4633 35.5877 29.4695 35.5939C30.0008 36.0439 30.6695 36.2877 31.3633 36.2877H32.6508C33.3445 36.2877 34.0195 36.0377 34.5508 35.5877C34.9383 35.2627 34.9508 35.2439 34.9883 35.2252V36.1877L32.0008 39.0627ZM38.182 25.1189C38.182 25.2939 38.0383 25.4439 37.857 25.4439C37.907 25.4439 37.282 25.4377 26.1445 25.4439C25.9695 25.4439 25.8195 25.3002 25.8195 25.1189C25.8195 24.6502 25.8195 24.3314 25.9008 23.8377H38.0945C38.182 24.3252 38.182 24.6814 38.182 25.1189ZM35.607 26.7752L35.0258 27.3377C34.5945 27.7564 34.0258 27.9814 33.432 27.9814H30.582C29.982 27.9814 29.4133 27.7502 28.982 27.3314L28.407 26.7752H35.607ZM26.4883 26.7752L28.0508 28.2877C28.732 28.9502 29.6258 29.3127 30.5758 29.3127H33.4258C34.3695 29.3127 35.2695 28.9502 35.9508 28.2939L37.5195 26.7752H37.5633C37.3133 31.6814 35.5258 33.0189 33.6758 34.5752C33.3883 34.8189 33.0195 34.9564 32.6445 34.9564H31.357C30.982 34.9564 30.6133 34.8189 30.3258 34.5752C28.807 33.2252 26.682 32.0252 26.4258 26.7752H26.4883ZM25.3508 20.2064L31.7508 17.3877C31.9133 17.3189 32.0945 17.3189 32.257 17.3877L38.6508 20.2064C38.982 20.3502 39.1195 20.7439 38.957 21.0627L38.2258 22.5002H25.7695L25.0445 21.0627C24.882 20.7439 25.0258 20.3502 25.3508 20.2064ZM28.2008 41.0502L26.5383 38.3752C28.9133 36.9127 28.0945 37.4127 28.2695 37.3064L30.9508 39.9002L29.0195 41.2252C28.7445 41.4127 28.3758 41.3314 28.2008 41.0502ZM31.5883 42.4502L30.7758 41.6377L32.0008 40.8002L33.2258 41.6377L32.4133 42.4502C32.1945 42.6689 31.807 42.6689 31.5883 42.4502ZM35.8008 41.0502C35.6258 41.3252 35.257 41.4127 34.982 41.2252L33.0508 39.9002L35.732 37.3064C35.907 37.4127 35.0945 36.9127 37.457 38.3752L35.8008 41.0502Z" fill="#01C705"/>
<path d="M42.4258 38.6002L38.657 37.5439C35.507 35.6002 36.507 36.2189 36.307 36.0939V34.0064C37.607 32.6314 38.782 30.5627 38.9133 26.3752C39.2758 26.0689 39.5133 25.6127 39.5133 25.0877C39.5133 24.5564 39.5133 24.0502 39.332 23.2502L40.1383 21.6627C40.6445 20.6627 40.207 19.4377 39.182 18.9814L32.7945 16.1689C32.2945 15.9502 31.7133 15.9502 31.2133 16.1689L24.8133 18.9877C23.7883 19.4377 23.3508 20.6627 23.857 21.6627L24.6633 23.2564C24.4945 24.0564 24.4945 24.5564 24.4945 25.1127C24.4945 25.5752 24.6695 26.0252 25.0883 26.3752C25.2133 30.5064 26.4133 32.6189 27.6945 33.9877V36.0877C27.4945 36.2127 28.4945 35.5939 25.3508 37.5439L21.582 38.6002C19.3195 39.2377 17.7383 41.3252 17.7383 43.6814V47.1502C17.7383 47.5189 18.0383 47.8189 18.407 47.8189C18.7758 47.8189 19.0633 47.5189 19.0633 47.1502V43.6814C19.0633 41.9252 20.2445 40.3627 21.9383 39.8877L25.3133 38.9377L27.0633 41.7564C27.5945 42.6127 28.7195 42.9377 29.6445 42.3939L30.0695 42.8189L29.582 47.2627C29.5445 47.6314 29.807 47.9564 30.1695 48.0002C30.532 48.0377 30.8633 47.7752 30.907 47.4127L31.3008 43.8252C31.5195 43.9127 31.7508 43.9564 31.9945 43.9564C32.2383 43.9564 32.4695 43.9064 32.6883 43.8252L33.082 47.4127C33.1258 47.8252 33.5445 48.0689 33.8195 48.0002C34.1883 47.9627 34.4508 47.6314 34.407 47.2627L33.9195 42.8189L34.3445 42.3939C35.2633 42.9314 36.3945 42.6189 36.9258 41.7564L38.6758 38.9377L42.057 39.8814C43.7508 40.3564 44.932 41.9189 44.932 43.6752V47.1439C44.932 47.5127 45.232 47.8127 45.6008 47.8127C45.9695 47.8127 46.2695 47.5127 46.2695 47.1439V43.6752C46.2695 41.3314 44.6883 39.2439 42.4258 38.6002ZM32.0008 39.0627L29.0258 36.1877V35.2189C29.0445 35.2377 29.4633 35.5877 29.4695 35.5939C30.0008 36.0439 30.6695 36.2877 31.3633 36.2877H32.6508C33.3445 36.2877 34.0195 36.0377 34.5508 35.5877C34.9383 35.2627 34.9508 35.2439 34.9883 35.2252V36.1877L32.0008 39.0627ZM38.182 25.1189C38.182 25.2939 38.0383 25.4439 37.857 25.4439C37.907 25.4439 37.282 25.4377 26.1445 25.4439C25.9695 25.4439 25.8195 25.3002 25.8195 25.1189C25.8195 24.6502 25.8195 24.3314 25.9008 23.8377H38.0945C38.182 24.3252 38.182 24.6814 38.182 25.1189ZM35.607 26.7752L35.0258 27.3377C34.5945 27.7564 34.0258 27.9814 33.432 27.9814H30.582C29.982 27.9814 29.4133 27.7502 28.982 27.3314L28.407 26.7752H35.607ZM26.4883 26.7752L28.0508 28.2877C28.732 28.9502 29.6258 29.3127 30.5758 29.3127H33.4258C34.3695 29.3127 35.2695 28.9502 35.9508 28.2939L37.5195 26.7752H37.5633C37.3133 31.6814 35.5258 33.0189 33.6758 34.5752C33.3883 34.8189 33.0195 34.9564 32.6445 34.9564H31.357C30.982 34.9564 30.6133 34.8189 30.3258 34.5752C28.807 33.2252 26.682 32.0252 26.4258 26.7752H26.4883ZM25.3508 20.2064L31.7508 17.3877C31.9133 17.3189 32.0945 17.3189 32.257 17.3877L38.6508 20.2064C38.982 20.3502 39.1195 20.7439 38.957 21.0627L38.2258 22.5002H25.7695L25.0445 21.0627C24.882 20.7439 25.0258 20.3502 25.3508 20.2064ZM28.2008 41.0502L26.5383 38.3752C28.9133 36.9127 28.0945 37.4127 28.2695 37.3064L30.9508 39.9002L29.0195 41.2252C28.7445 41.4127 28.3758 41.3314 28.2008 41.0502ZM31.5883 42.4502L30.7758 41.6377L32.0008 40.8002L33.2258 41.6377L32.4133 42.4502C32.1945 42.6689 31.807 42.6689 31.5883 42.4502ZM35.8008 41.0502C35.6258 41.3252 35.257 41.4127 34.982 41.2252L33.0508 39.9002L35.732 37.3064C35.907 37.4127 35.0945 36.9127 37.457 38.3752L35.8008 41.0502Z" stroke="#01C705" stroke-width="0.2" mask="url(#path-2-outside-1_322_1130)"/>
</g>
<defs>
<clipPath id="clip0_322_1130">
<rect width="32" height="32" fill="white" transform="translate(16 16)"/>
</clipPath>
</defs>
</svg>
