<svg width="64" height="64" viewBox="0 0 64 64" fill="none" xmlns="http://www.w3.org/2000/svg">
<rect width="64" height="64" rx="8" fill="white"/>
<path d="M47.9467 34.1325L45.5177 20.3565C45.1876 18.4848 43.396 17.2305 41.5246 17.5605L20.6911 21.2341C18.8193 21.5641 17.5651 23.3554 17.8951 25.2271L18.0736 26.2395C16.8546 26.7712 16 27.9874 16 29.4002V43.0445C16 44.9451 17.5463 46.4914 19.4469 46.4914H40.128C42.0285 46.4914 43.5748 44.9451 43.5748 43.0445V38.4033L45.1507 38.1255C46.0574 37.9656 46.8476 37.4622 47.3757 36.708C47.9038 35.9538 48.1066 35.0391 47.9467 34.1325ZM45.8356 35.6296C45.5956 35.9724 45.2364 36.2012 44.8243 36.2739L43.5748 36.4942V35.4227V31.158V29.4001C43.5748 27.4995 42.0285 25.9532 40.128 25.9532H19.9323L19.7467 24.9006C19.674 24.4885 19.7662 24.0727 20.0062 23.7298C20.2463 23.387 20.6055 23.1582 21.0176 23.0855L41.8511 19.412C41.9428 19.3958 42.0339 19.3881 42.124 19.3881C42.8695 19.3881 43.5324 19.9238 43.6662 20.6829L46.0952 34.4589C46.1678 34.8711 46.0757 35.2868 45.8356 35.6296ZM40.128 44.6113H19.4469C18.5829 44.6113 17.8801 43.9085 17.8801 43.0445V36.3627H41.6947V43.0445C41.6947 43.9085 40.9919 44.6113 40.128 44.6113ZM19.4469 27.8334H40.128C40.9919 27.8334 41.6947 28.5362 41.6947 29.4002V30.218H17.8801V29.4002C17.8801 28.5362 18.5829 27.8334 19.4469 27.8334ZM41.6947 32.0981V34.4827H17.8801V32.0981H41.6947Z" fill="#01C705"/>
<path d="M25.0485 40.8359H20.7838C20.2646 40.8359 19.8438 41.2568 19.8438 41.776C19.8438 42.2951 20.2646 42.716 20.7838 42.716H25.0485C25.5677 42.716 25.9885 42.2951 25.9885 41.776C25.9885 41.2568 25.5677 40.8359 25.0485 40.8359Z" fill="#01C705"/>
</svg>
