<svg width="64" height="64" viewBox="0 0 64 64" fill="none" xmlns="http://www.w3.org/2000/svg">
<rect width="64" height="64" rx="8" fill="white"/>
<g clip-path="url(#clip0_322_1107)">
<path d="M44.7293 21.1816L32.4793 16.0956C32.1724 15.9682 31.8275 15.9681 31.5207 16.0956L19.2707 21.1816C18.8041 21.3754 18.5 21.8309 18.5 22.3361V28.5189C18.5 37.0322 23.6456 44.6901 31.5276 47.9073C31.8304 48.0309 32.1696 48.0309 32.4724 47.9073C40.3543 44.6902 45.5 37.0322 45.5 28.5189V22.3361C45.5 21.8309 45.1959 21.3754 44.7293 21.1816ZM43 28.5189C43 35.7561 38.75 42.4184 32 45.3922C25.4304 42.4978 21 35.9522 21 28.5189V23.1706L32 18.6034L43 23.1706V28.5189ZM30.6184 32.7322L35.9911 27.3596C36.4792 26.8714 37.2707 26.8714 37.7589 27.3596C38.2471 27.8477 38.247 28.6392 37.7588 29.1273L31.5022 35.3839C31.014 35.8721 30.2226 35.8719 29.7345 35.3839L26.2411 31.8905C25.7529 31.4023 25.7529 30.6109 26.2411 30.1227C26.7293 29.6346 27.5208 29.6346 28.0089 30.1227L30.6184 32.7322Z" fill="#01C705"/>
</g>
<defs>
<clipPath id="clip0_322_1107">
<rect width="32" height="32" fill="white" transform="translate(16 16)"/>
</clipPath>
</defs>
</svg>
