<svg xmlns="http://www.w3.org/2000/svg" width="32" height="32" viewBox="0 0 32 32" fill="none">
  <g clip-path="url(#clip0_322_1217)">
    <path d="M24.0186 1L17.96 12.0137L17.1455 13.4961H26.5049L14.2441 30.7842L16.4658 19.5654L16.7021 18.3711H6.71387L12.9189 1H24.0186Z" stroke="#01C705" stroke-width="2"/>
    <path d="M10.4921 29.9818C10.9999 30.0833 11.4937 29.754 11.5953 29.2463L12.9702 22.3713C13.0717 21.8636 12.7424 21.3696 12.2347 21.2681C11.727 21.1666 11.2331 21.4959 11.1315 22.0036L9.75667 28.8786C9.65511 29.3863 9.98436 29.8802 10.4921 29.9818Z" fill="#01C705"/>
    <path d="M2.55993 18.6702C3.04756 18.8444 3.58399 18.5903 3.75812 18.1027L7.77593 6.85267C7.95006 6.36504 7.69599 5.8286 7.20837 5.65448C6.72074 5.48035 6.18431 5.73441 6.01018 6.22204L1.99237 17.472C1.81824 17.9597 2.07231 18.4961 2.55993 18.6702Z" fill="#01C705"/>
    <path d="M27.585 0.485874L24.1475 6.73587C23.898 7.18956 24.0635 7.75956 24.5171 8.00912C24.9708 8.25862 25.5408 8.09319 25.7903 7.6395L29.2279 1.3895C29.4774 0.935812 29.3119 0.365812 28.8583 0.116249C28.4046 -0.133313 27.8345 0.0321868 27.585 0.485874Z" fill="#01C705"/>
    <path d="M18.1967 31.8306C18.6209 32.1277 19.2054 32.0246 19.5024 31.6005L23.9668 25.2254C24.2638 24.8013 24.1608 24.2167 23.7367 23.9197L23.7366 23.9196C23.3125 23.6226 22.7279 23.7257 22.4309 24.1498L17.9666 30.5248C17.6695 30.949 17.7726 31.5336 18.1967 31.8306Z" fill="#01C705"/>
    <path d="M28.3639 15.8439L26.1317 18.9689C25.8308 19.3902 25.9284 19.9757 26.3497 20.2767H26.3497C26.771 20.5776 27.3565 20.48 27.6575 20.0587L29.8897 16.9337C30.1906 16.5124 30.093 15.9269 29.6717 15.6259C29.2504 15.3249 28.6649 15.4225 28.3639 15.8439Z" fill="#01C705"/>
  </g>
  <defs>
    <clipPath id="clip0_322_1217">
      <rect width="32" height="32" fill="white"/>
    </clipPath>
  </defs>
</svg>