<svg xmlns="http://www.w3.org/2000/svg" width="32" height="32" viewBox="0 0 32 32" fill="none">
  <g clip-path="url(#clip0_322_1236)">
    <path d="M16 0C8.40025 0 2.25 6.15025 2.25 13.75V20.75C2.25 22.8177 3.93225 24.5 6 24.5C8.06775 24.5 9.75 22.8177 9.75 20.75V16.25C9.75 14.1823 8.06775 12.5 6 12.5C5.58019 12.5 5.17675 12.5704 4.79956 12.6982C5.33169 6.98631 10.1514 2.5 16 2.5C21.8486 2.5 26.6683 6.98631 27.2004 12.6982C26.8232 12.5704 26.4198 12.5 26 12.5C23.9323 12.5 22.25 14.1823 22.25 16.25V20.75C22.25 22.8177 23.9323 24.5 26 24.5C26.3784 24.5 26.7437 24.4431 27.0884 24.3384C26.6208 25.8769 25.1893 27 23.5 27H19.535C19.019 25.5451 17.6296 24.5 16 24.5C13.9323 24.5 12.25 26.1823 12.25 28.25C12.25 30.3177 13.9323 32 16 32C17.6296 32 19.0189 30.9549 19.535 29.5H23.5C26.9463 29.5 29.75 26.6963 29.75 23.25V13.75C29.75 6.15025 23.5998 0 16 0ZM6 15C6.68925 15 7.25 15.5608 7.25 16.25V20.75C7.25 21.4393 6.68925 22 6 22C5.31075 22 4.75 21.4393 4.75 20.75V16.25C4.75 15.5608 5.31075 15 6 15ZM16 29.5C15.3108 29.5 14.75 28.9393 14.75 28.25C14.75 27.5607 15.3108 27 16 27C16.6892 27 17.25 27.5607 17.25 28.25C17.25 28.9393 16.6892 29.5 16 29.5ZM26 22C25.3107 22 24.75 21.4393 24.75 20.75V16.25C24.75 15.5608 25.3107 15 26 15C26.6893 15 27.25 15.5608 27.25 16.25V20.75C27.25 21.4393 26.6893 22 26 22Z" fill="#01C705"/>
  </g>
  <defs>
    <clipPath id="clip0_322_1236">
      <rect width="32" height="32" fill="white"/>
    </clipPath>
  </defs>
</svg>