<svg width="231" height="53" viewBox="0 0 231 53" fill="none" xmlns="http://www.w3.org/2000/svg">
<g clip-path="url(#clip0_471_61)">
<path d="M136.351 44.2199C135.612 44.2199 135.002 43.6133 135.002 42.879V16.4428L123.821 29.4374C123.307 30.044 122.568 30.3952 121.765 30.3952C120.962 30.3952 120.223 30.044 119.709 29.4374L108.528 16.4428V42.879C108.528 43.6133 107.918 44.2199 107.179 44.2199C106.44 44.2199 105.83 43.6133 105.83 42.879V14.5272C105.83 13.697 106.344 12.9946 107.115 12.7073C107.886 12.4199 108.785 12.6115 109.332 13.2501L121.765 27.6814L134.199 13.2501C134.777 12.6115 135.644 12.388 136.415 12.7073C137.186 12.9946 137.701 13.729 137.701 14.5272V42.879C137.701 43.6133 137.09 44.2199 136.351 44.2199Z" fill="#0A0A0A"/>
<path d="M158.262 44.22C149.363 44.22 142.134 37.0362 142.134 28.1923C142.134 19.3483 149.363 12.1646 158.262 12.1646C167.162 12.1646 174.391 19.3483 174.391 28.1923C174.391 37.0362 167.162 44.22 158.262 44.22ZM158.262 14.8784C150.873 14.8784 144.865 20.8489 144.865 28.1923C144.865 35.5356 150.873 41.5061 158.262 41.5061C165.652 41.5061 171.66 35.5356 171.66 28.1923C171.66 20.8489 165.652 14.8784 158.262 14.8784Z" fill="#0A0A0A"/>
<path d="M214.871 44.22C205.972 44.22 198.743 37.0362 198.743 28.1923C198.743 19.3483 205.972 12.1646 214.871 12.1646C223.771 12.1646 231 19.3483 231 28.1923C231 37.0362 223.771 44.22 214.871 44.22ZM214.871 14.8784C207.482 14.8784 201.474 20.8489 201.474 28.1923C201.474 35.5356 207.482 41.5061 214.871 41.5061C222.261 41.5061 228.269 35.5356 228.269 28.1923C228.269 20.8489 222.261 14.8784 214.871 14.8784Z" fill="#0A0A0A"/>
<path d="M197.619 15.549H175.579C174.84 15.549 174.198 14.9424 174.198 14.1761C174.198 13.4098 174.808 12.8032 175.579 12.8032H197.619C198.358 12.8032 199.001 13.4098 199.001 14.1761C199.001 14.9424 198.39 15.549 197.619 15.549Z" fill="#0A0A0A"/>
<path d="M186.599 44.2197C185.86 44.2197 185.218 43.6131 185.218 42.8468V17.9432C185.218 17.2089 185.828 16.5703 186.599 16.5703C187.37 16.5703 187.981 17.1769 187.981 17.9432V42.8468C187.981 43.5812 187.37 44.2197 186.599 44.2197Z" fill="#0A0A0A"/>
<path d="M8.73862 53.0319C3.98368 53.0319 0.0961914 49.1686 0.0961914 44.4433V15.0059C0.0961914 11.7493 1.92749 8.81198 4.85113 7.37523C7.77478 5.90655 11.2446 6.22583 13.847 8.20535L15.2606 9.25896V8.39691C15.2606 5.17221 17.0598 2.29872 19.9513 0.893897C22.8428 -0.510922 26.2484 -0.191641 28.8186 1.75595L46.5853 15.3572C48.77 17.0174 51.8222 17.0174 53.9748 15.3572L71.0669 2.10716C73.6692 0.0957103 77.139 -0.255492 80.0948 1.18125C83.0506 2.618 84.914 5.55535 84.914 8.81198V44.571C84.914 49.0728 81.2193 52.7126 76.7214 52.7126H72.8981C70.842 52.7126 68.85 52.0421 67.2115 50.8288L17.3489 13.4734V44.4752C17.3489 49.2005 13.4614 53.0638 8.70649 53.0638L8.73862 53.0319ZM8.73862 8.52463C7.74265 8.52463 6.74668 8.74812 5.81497 9.22703C3.56602 10.3445 2.21664 12.5156 2.21664 15.0059V44.4433C2.21664 48.0192 5.14028 50.9566 8.77074 50.9566C12.4012 50.9566 15.3249 48.0511 15.3249 44.4433V11.877L12.6582 9.86559C11.5016 9.00354 10.1522 8.55655 8.77074 8.55655L8.73862 8.52463ZM17.381 10.8234L68.4966 49.1367C69.7496 50.0945 71.3239 50.6053 72.9303 50.6053H76.7535C80.1269 50.6053 82.8578 47.8915 82.8578 44.5391V8.78005C82.8578 6.25776 81.5084 4.1186 79.2273 3.00113C76.9463 1.88366 74.4082 2.17101 72.4162 3.70354L55.3242 16.9535C52.4005 19.2204 48.2881 19.2204 45.3645 16.9535L27.5977 3.35233C25.6379 1.85173 23.1641 1.59631 20.9472 2.68185C18.7304 3.76739 17.4132 5.87463 17.4132 8.33306V10.7596L17.381 10.8234Z" fill="#01C705"/>
</g>
<defs>
<clipPath id="clip0_471_61">
<rect width="231" height="53" fill="white"/>
</clipPath>
</defs>
</svg>
