<svg width="32" height="32" viewBox="0 0 32 32" fill="none" xmlns="http://www.w3.org/2000/svg">
<g clip-path="url(#clip0_322_1132)">
<mask id="path-1-outside-1_322_1132" maskUnits="userSpaceOnUse" x="0.738281" y="-0.995117" width="30" height="34" fill="black">
<rect fill="white" x="0.738281" y="-0.995117" width="30" height="34"/>
<path d="M26.4258 22.6002L22.657 21.5439C19.507 19.6002 20.507 20.2189 20.307 20.0939V18.0064C21.607 16.6314 22.782 14.5627 22.9133 10.3752C23.2758 10.0689 23.5133 9.61269 23.5133 9.0877C23.5133 8.55645 23.5133 8.0502 23.332 7.2502L24.1383 5.6627C24.6445 4.6627 24.207 3.4377 23.182 2.98145L16.7945 0.168945C16.2945 -0.0498047 15.7133 -0.0498047 15.2133 0.168945L8.81328 2.9877C7.78828 3.4377 7.35078 4.6627 7.85703 5.6627L8.66328 7.25645C8.49453 8.05645 8.49453 8.55645 8.49453 9.1127C8.49453 9.5752 8.66953 10.0252 9.08828 10.3752C9.21328 14.5064 10.4133 16.6189 11.6945 17.9877V20.0877C11.4945 20.2127 12.4945 19.5939 9.35078 21.5439L5.58203 22.6002C3.31953 23.2377 1.73828 25.3252 1.73828 27.6814V31.1502C1.73828 31.5189 2.03828 31.8189 2.40703 31.8189C2.77578 31.8189 3.06328 31.5189 3.06328 31.1502V27.6814C3.06328 25.9252 4.24453 24.3627 5.93828 23.8877L9.31328 22.9377L11.0633 25.7564C11.5945 26.6127 12.7195 26.9377 13.6445 26.3939L14.0695 26.8189L13.582 31.2627C13.5445 31.6314 13.807 31.9564 14.1695 32.0002C14.532 32.0377 14.8633 31.7752 14.907 31.4127L15.3008 27.8252C15.5195 27.9127 15.7508 27.9564 15.9945 27.9564C16.2383 27.9564 16.4695 27.9064 16.6883 27.8252L17.082 31.4127C17.1258 31.8252 17.5445 32.0689 17.8195 32.0002C18.1883 31.9627 18.4508 31.6314 18.407 31.2627L17.9195 26.8189L18.3445 26.3939C19.2633 26.9314 20.3945 26.6189 20.9258 25.7564L22.6758 22.9377L26.057 23.8814C27.7508 24.3564 28.932 25.9189 28.932 27.6752V31.1439C28.932 31.5127 29.232 31.8127 29.6008 31.8127C29.9695 31.8127 30.2695 31.5127 30.2695 31.1439V27.6752C30.2695 25.3314 28.6883 23.2439 26.4258 22.6002ZM16.0008 23.0627L13.0258 20.1877V19.2189C13.0445 19.2377 13.4633 19.5877 13.4695 19.5939C14.0008 20.0439 14.6695 20.2877 15.3633 20.2877H16.6508C17.3445 20.2877 18.0195 20.0377 18.5508 19.5877C18.9383 19.2627 18.9508 19.2439 18.9883 19.2252V20.1877L16.0008 23.0627ZM22.182 9.11895C22.182 9.29395 22.0383 9.44395 21.857 9.44395C21.907 9.44395 21.282 9.4377 10.1445 9.44395C9.96953 9.44395 9.81953 9.30019 9.81953 9.11895C9.81953 8.6502 9.81953 8.33145 9.90078 7.8377H22.0945C22.182 8.3252 22.182 8.68145 22.182 9.11895ZM19.607 10.7752L19.0258 11.3377C18.5945 11.7564 18.0258 11.9814 17.432 11.9814H14.582C13.982 11.9814 13.4133 11.7502 12.982 11.3314L12.407 10.7752H19.607ZM10.4883 10.7752L12.0508 12.2877C12.732 12.9502 13.6258 13.3127 14.5758 13.3127H17.4258C18.3695 13.3127 19.2695 12.9502 19.9508 12.2939L21.5195 10.7752H21.5633C21.3133 15.6814 19.5258 17.0189 17.6758 18.5752C17.3883 18.8189 17.0195 18.9564 16.6445 18.9564H15.357C14.982 18.9564 14.6133 18.8189 14.3258 18.5752C12.807 17.2252 10.682 16.0252 10.4258 10.7752H10.4883ZM9.35078 4.20645L15.7508 1.3877C15.9133 1.31895 16.0945 1.31895 16.257 1.3877L22.6508 4.20645C22.982 4.3502 23.1195 4.74395 22.957 5.0627L22.2258 6.5002H9.76953L9.04453 5.0627C8.88203 4.74395 9.02578 4.3502 9.35078 4.20645ZM12.2008 25.0502L10.5383 22.3752C12.9133 20.9127 12.0945 21.4127 12.2695 21.3064L14.9508 23.9002L13.0195 25.2252C12.7445 25.4127 12.3758 25.3314 12.2008 25.0502ZM15.5883 26.4502L14.7758 25.6377L16.0008 24.8002L17.2258 25.6377L16.4133 26.4502C16.1945 26.6689 15.807 26.6689 15.5883 26.4502ZM19.8008 25.0502C19.6258 25.3252 19.257 25.4127 18.982 25.2252L17.0508 23.9002L19.732 21.3064C19.907 21.4127 19.0945 20.9127 21.457 22.3752L19.8008 25.0502Z"/>
</mask>
<path d="M26.4258 22.6002L22.657 21.5439C19.507 19.6002 20.507 20.2189 20.307 20.0939V18.0064C21.607 16.6314 22.782 14.5627 22.9133 10.3752C23.2758 10.0689 23.5133 9.61269 23.5133 9.0877C23.5133 8.55645 23.5133 8.0502 23.332 7.2502L24.1383 5.6627C24.6445 4.6627 24.207 3.4377 23.182 2.98145L16.7945 0.168945C16.2945 -0.0498047 15.7133 -0.0498047 15.2133 0.168945L8.81328 2.9877C7.78828 3.4377 7.35078 4.6627 7.85703 5.6627L8.66328 7.25645C8.49453 8.05645 8.49453 8.55645 8.49453 9.1127C8.49453 9.5752 8.66953 10.0252 9.08828 10.3752C9.21328 14.5064 10.4133 16.6189 11.6945 17.9877V20.0877C11.4945 20.2127 12.4945 19.5939 9.35078 21.5439L5.58203 22.6002C3.31953 23.2377 1.73828 25.3252 1.73828 27.6814V31.1502C1.73828 31.5189 2.03828 31.8189 2.40703 31.8189C2.77578 31.8189 3.06328 31.5189 3.06328 31.1502V27.6814C3.06328 25.9252 4.24453 24.3627 5.93828 23.8877L9.31328 22.9377L11.0633 25.7564C11.5945 26.6127 12.7195 26.9377 13.6445 26.3939L14.0695 26.8189L13.582 31.2627C13.5445 31.6314 13.807 31.9564 14.1695 32.0002C14.532 32.0377 14.8633 31.7752 14.907 31.4127L15.3008 27.8252C15.5195 27.9127 15.7508 27.9564 15.9945 27.9564C16.2383 27.9564 16.4695 27.9064 16.6883 27.8252L17.082 31.4127C17.1258 31.8252 17.5445 32.0689 17.8195 32.0002C18.1883 31.9627 18.4508 31.6314 18.407 31.2627L17.9195 26.8189L18.3445 26.3939C19.2633 26.9314 20.3945 26.6189 20.9258 25.7564L22.6758 22.9377L26.057 23.8814C27.7508 24.3564 28.932 25.9189 28.932 27.6752V31.1439C28.932 31.5127 29.232 31.8127 29.6008 31.8127C29.9695 31.8127 30.2695 31.5127 30.2695 31.1439V27.6752C30.2695 25.3314 28.6883 23.2439 26.4258 22.6002ZM16.0008 23.0627L13.0258 20.1877V19.2189C13.0445 19.2377 13.4633 19.5877 13.4695 19.5939C14.0008 20.0439 14.6695 20.2877 15.3633 20.2877H16.6508C17.3445 20.2877 18.0195 20.0377 18.5508 19.5877C18.9383 19.2627 18.9508 19.2439 18.9883 19.2252V20.1877L16.0008 23.0627ZM22.182 9.11895C22.182 9.29395 22.0383 9.44395 21.857 9.44395C21.907 9.44395 21.282 9.4377 10.1445 9.44395C9.96953 9.44395 9.81953 9.30019 9.81953 9.11895C9.81953 8.6502 9.81953 8.33145 9.90078 7.8377H22.0945C22.182 8.3252 22.182 8.68145 22.182 9.11895ZM19.607 10.7752L19.0258 11.3377C18.5945 11.7564 18.0258 11.9814 17.432 11.9814H14.582C13.982 11.9814 13.4133 11.7502 12.982 11.3314L12.407 10.7752H19.607ZM10.4883 10.7752L12.0508 12.2877C12.732 12.9502 13.6258 13.3127 14.5758 13.3127H17.4258C18.3695 13.3127 19.2695 12.9502 19.9508 12.2939L21.5195 10.7752H21.5633C21.3133 15.6814 19.5258 17.0189 17.6758 18.5752C17.3883 18.8189 17.0195 18.9564 16.6445 18.9564H15.357C14.982 18.9564 14.6133 18.8189 14.3258 18.5752C12.807 17.2252 10.682 16.0252 10.4258 10.7752H10.4883ZM9.35078 4.20645L15.7508 1.3877C15.9133 1.31895 16.0945 1.31895 16.257 1.3877L22.6508 4.20645C22.982 4.3502 23.1195 4.74395 22.957 5.0627L22.2258 6.5002H9.76953L9.04453 5.0627C8.88203 4.74395 9.02578 4.3502 9.35078 4.20645ZM12.2008 25.0502L10.5383 22.3752C12.9133 20.9127 12.0945 21.4127 12.2695 21.3064L14.9508 23.9002L13.0195 25.2252C12.7445 25.4127 12.3758 25.3314 12.2008 25.0502ZM15.5883 26.4502L14.7758 25.6377L16.0008 24.8002L17.2258 25.6377L16.4133 26.4502C16.1945 26.6689 15.807 26.6689 15.5883 26.4502ZM19.8008 25.0502C19.6258 25.3252 19.257 25.4127 18.982 25.2252L17.0508 23.9002L19.732 21.3064C19.907 21.4127 19.0945 20.9127 21.457 22.3752L19.8008 25.0502Z" fill="#01C705"/>
<path d="M26.4258 22.6002L22.657 21.5439C19.507 19.6002 20.507 20.2189 20.307 20.0939V18.0064C21.607 16.6314 22.782 14.5627 22.9133 10.3752C23.2758 10.0689 23.5133 9.61269 23.5133 9.0877C23.5133 8.55645 23.5133 8.0502 23.332 7.2502L24.1383 5.6627C24.6445 4.6627 24.207 3.4377 23.182 2.98145L16.7945 0.168945C16.2945 -0.0498047 15.7133 -0.0498047 15.2133 0.168945L8.81328 2.9877C7.78828 3.4377 7.35078 4.6627 7.85703 5.6627L8.66328 7.25645C8.49453 8.05645 8.49453 8.55645 8.49453 9.1127C8.49453 9.5752 8.66953 10.0252 9.08828 10.3752C9.21328 14.5064 10.4133 16.6189 11.6945 17.9877V20.0877C11.4945 20.2127 12.4945 19.5939 9.35078 21.5439L5.58203 22.6002C3.31953 23.2377 1.73828 25.3252 1.73828 27.6814V31.1502C1.73828 31.5189 2.03828 31.8189 2.40703 31.8189C2.77578 31.8189 3.06328 31.5189 3.06328 31.1502V27.6814C3.06328 25.9252 4.24453 24.3627 5.93828 23.8877L9.31328 22.9377L11.0633 25.7564C11.5945 26.6127 12.7195 26.9377 13.6445 26.3939L14.0695 26.8189L13.582 31.2627C13.5445 31.6314 13.807 31.9564 14.1695 32.0002C14.532 32.0377 14.8633 31.7752 14.907 31.4127L15.3008 27.8252C15.5195 27.9127 15.7508 27.9564 15.9945 27.9564C16.2383 27.9564 16.4695 27.9064 16.6883 27.8252L17.082 31.4127C17.1258 31.8252 17.5445 32.0689 17.8195 32.0002C18.1883 31.9627 18.4508 31.6314 18.407 31.2627L17.9195 26.8189L18.3445 26.3939C19.2633 26.9314 20.3945 26.6189 20.9258 25.7564L22.6758 22.9377L26.057 23.8814C27.7508 24.3564 28.932 25.9189 28.932 27.6752V31.1439C28.932 31.5127 29.232 31.8127 29.6008 31.8127C29.9695 31.8127 30.2695 31.5127 30.2695 31.1439V27.6752C30.2695 25.3314 28.6883 23.2439 26.4258 22.6002ZM16.0008 23.0627L13.0258 20.1877V19.2189C13.0445 19.2377 13.4633 19.5877 13.4695 19.5939C14.0008 20.0439 14.6695 20.2877 15.3633 20.2877H16.6508C17.3445 20.2877 18.0195 20.0377 18.5508 19.5877C18.9383 19.2627 18.9508 19.2439 18.9883 19.2252V20.1877L16.0008 23.0627ZM22.182 9.11895C22.182 9.29395 22.0383 9.44395 21.857 9.44395C21.907 9.44395 21.282 9.4377 10.1445 9.44395C9.96953 9.44395 9.81953 9.30019 9.81953 9.11895C9.81953 8.6502 9.81953 8.33145 9.90078 7.8377H22.0945C22.182 8.3252 22.182 8.68145 22.182 9.11895ZM19.607 10.7752L19.0258 11.3377C18.5945 11.7564 18.0258 11.9814 17.432 11.9814H14.582C13.982 11.9814 13.4133 11.7502 12.982 11.3314L12.407 10.7752H19.607ZM10.4883 10.7752L12.0508 12.2877C12.732 12.9502 13.6258 13.3127 14.5758 13.3127H17.4258C18.3695 13.3127 19.2695 12.9502 19.9508 12.2939L21.5195 10.7752H21.5633C21.3133 15.6814 19.5258 17.0189 17.6758 18.5752C17.3883 18.8189 17.0195 18.9564 16.6445 18.9564H15.357C14.982 18.9564 14.6133 18.8189 14.3258 18.5752C12.807 17.2252 10.682 16.0252 10.4258 10.7752H10.4883ZM9.35078 4.20645L15.7508 1.3877C15.9133 1.31895 16.0945 1.31895 16.257 1.3877L22.6508 4.20645C22.982 4.3502 23.1195 4.74395 22.957 5.0627L22.2258 6.5002H9.76953L9.04453 5.0627C8.88203 4.74395 9.02578 4.3502 9.35078 4.20645ZM12.2008 25.0502L10.5383 22.3752C12.9133 20.9127 12.0945 21.4127 12.2695 21.3064L14.9508 23.9002L13.0195 25.2252C12.7445 25.4127 12.3758 25.3314 12.2008 25.0502ZM15.5883 26.4502L14.7758 25.6377L16.0008 24.8002L17.2258 25.6377L16.4133 26.4502C16.1945 26.6689 15.807 26.6689 15.5883 26.4502ZM19.8008 25.0502C19.6258 25.3252 19.257 25.4127 18.982 25.2252L17.0508 23.9002L19.732 21.3064C19.907 21.4127 19.0945 20.9127 21.457 22.3752L19.8008 25.0502Z" stroke="#01C705" stroke-width="0.2" mask="url(#path-1-outside-1_322_1132)"/>
</g>
<defs>
<clipPath id="clip0_322_1132">
<rect width="32" height="32" fill="white"/>
</clipPath>
</defs>
</svg>
