<svg xmlns="http://www.w3.org/2000/svg" width="28" height="28" viewBox="0 0 28 28" fill="none">
  <mask id="mask0_378_310" style="mask-type:alpha" maskUnits="userSpaceOnUse" x="0" y="0" width="28" height="28">
    <circle cx="14" cy="14" r="14" fill="#D9D9D9"/>
  </mask>
  <g mask="url(#mask0_378_310)">
    <path d="M0 26H28V4H0V26Z" fill="#FFE70E"/>
    <path d="M0 28H28V19H0V28Z" fill="#E92B2B"/>
    <path d="M0 9H28V0H0V9Z" fill="#32AB45"/>
    <path d="M20.5 14C20.5 17.5899 17.5899 20.5 14 20.5C10.4101 20.5 7.5 17.5899 7.5 14C7.5 10.4101 10.4101 7.5 14 7.5C17.5899 7.5 20.5 10.4101 20.5 14Z" fill="#2A2FAF"/>
    <path fill-rule="evenodd" clip-rule="evenodd" d="M13.9998 8.65332L15.0441 12.0326L16.805 9.84338L17.1946 10.1568L15.466 12.3058H18.7389L16.0459 14.3631L18.5835 15.2645L18.4161 15.7357L15.9137 14.8468L16.9417 18.1736L14.2498 16.1171V18.5001H13.7498V16.1171L11.0579 18.1736L12.0859 14.8468L9.58349 15.7357L9.41612 15.2645L11.9538 14.3631L9.26074 12.3058H12.5336L10.805 10.1568L11.1946 9.84338L12.9556 12.0326L13.9998 8.65332ZM12.7166 12.8058L12.3389 14.0281L10.7389 12.8058H12.7166ZM12.7623 14.3516L13.2399 12.8058H14.7597L15.2373 14.3516L13.9998 15.2969L12.7623 14.3516ZM12.605 14.8606L13.588 15.6116L11.9974 16.8266L12.605 14.8606ZM14.4116 15.6116L15.3946 14.8606L16.0022 16.8266L14.4116 15.6116ZM15.6607 14.0281L15.283 12.8058H17.2607L15.6607 14.0281ZM14.6052 12.3058H13.3944L13.9998 10.3469L14.6052 12.3058Z" fill="#FFE70E"/>
  </g>
</svg>