<svg xmlns="http://www.w3.org/2000/svg" width="32" height="32" viewBox="0 0 32 32" fill="none">
  <path d="M30.2504 13.6285H28.244L26.7784 8.73887C26.292 7.11647 24.8296 6.02848 23.1368 6.02848H19.8024C19.8024 4.98207 18.9512 4.13086 17.9016 4.13086H14.1C13.0504 4.13086 12.1992 4.98207 12.1992 6.02848H8.86478C7.17197 6.02848 5.70959 7.11647 5.22318 8.73887L3.75758 13.6285H1.75117C1.22639 13.6285 0.800781 14.0541 0.800781 14.5789C0.800781 15.5677 1.66479 16.4349 2.70158 16.9437V26.9181C2.70158 27.4429 3.12719 27.8685 3.65197 27.8685H5.54959C6.07437 27.8685 6.49998 27.4429 6.49998 26.9181V25.0301H25.5016V26.9181C25.5016 27.4429 25.9272 27.8685 26.452 27.8685H28.3496C28.8744 27.8685 29.3 27.4429 29.3 26.9181V16.9437C30.3368 16.4349 31.2008 15.5677 31.2008 14.5789C31.2008 14.0541 30.7752 13.6285 30.2504 13.6285ZM6.03598 12.6493L7.04398 9.28287C7.28719 8.47967 8.02639 7.92928 8.86478 7.92928H23.1368C23.9752 7.92928 24.7144 8.47967 24.9576 9.28287L25.9656 12.6493C26.1128 13.1357 25.748 13.6285 25.236 13.6285H6.76559C6.25357 13.6285 5.88879 13.1357 6.03598 12.6493ZM9.35117 21.2285H6.49998C5.45039 21.2285 4.60238 20.3773 4.60238 19.3309C4.60238 18.2813 5.45039 17.4301 6.49998 17.4301C8.08398 17.4301 10.3016 18.6973 10.3016 20.2813C10.3016 20.8029 9.87598 21.2285 9.35117 21.2285ZM19.2968 22.5949C19.2968 22.8445 19.0952 23.0461 18.8456 23.0461H13.156C12.9064 23.0461 12.7048 22.8445 12.7048 22.5949V21.4109C12.7048 21.1613 12.9064 20.9597 13.156 20.9597H18.8456C19.0952 20.9597 19.2968 21.1613 19.2968 21.4109V22.5949ZM25.5016 21.2285H22.6504C22.1256 21.2285 21.7 20.8029 21.7 20.2813C21.7 18.6973 23.9176 17.4301 25.5016 17.4301C26.5512 17.4301 27.3992 18.2813 27.3992 19.3309C27.3992 20.3773 26.5512 21.2285 25.5016 21.2285Z" fill="#01C705"/>
</svg>